<svg xmlns="http://www.w3.org/2000/svg" width="43" height="40" viewBox="0 0 43 40" fill="none"><path d="M31.1004 26.7818C30.3568 26.7818 29.7465 26.1612 29.7465 25.4049V23.3879C29.7465 21.2352 31.4627 19.4703 33.5984 19.4703H36.2299C38.3656 19.4703 40.1009 17.7636 40.1963 15.6109C40.2344 14.5442 39.853 13.5164 39.1284 12.7212C38.4038 11.9261 37.4122 11.4606 36.3825 11.4412C35.6388 11.4218 34.9142 11.5964 34.2849 11.9649C33.8845 12.1976 33.3696 12.1976 32.9692 11.9649C32.5497 11.7321 32.3018 11.3055 32.2636 10.8206C32.0729 6.3988 28.488 2.92728 24.1403 2.92728C20.8414 2.92728 17.8858 4.94425 16.6081 8.04728C16.4556 8.39637 16.1696 8.68728 15.8263 8.82304C15.464 8.95879 15.0636 8.92001 14.7394 8.74546C14.4152 8.57092 14.0529 8.47395 13.6906 8.47395C12.8134 8.47395 12.0126 8.99758 11.6503 9.81213C11.4977 10.1612 11.2117 10.4133 10.8684 10.5297C10.5252 10.6461 10.1438 10.6267 9.81965 10.4715C9.17131 10.1418 8.46576 9.96728 7.72208 9.96728C6.44447 9.96728 5.2622 10.4715 4.36597 11.4024C3.46974 12.3333 3.01209 13.5552 3.05022 14.8546C3.1265 17.4146 5.28127 19.4897 7.85556 19.4897H9.64803C11.6884 19.4897 13.3474 21.0994 13.4809 23.1358C13.4809 23.1939 13.4809 23.2327 13.4809 23.2909V23.3879C13.4809 24.1443 12.8707 24.7649 12.127 24.7649C11.3833 24.7649 10.7731 24.1443 10.7731 23.3879C10.7731 22.7479 10.2582 22.2243 9.62896 22.2243H7.83649C3.81297 22.2243 0.437796 18.9467 0.323383 14.9321C0.266177 12.8764 1.00986 10.9564 2.42095 9.48243C3.83204 8.00849 5.70079 7.21334 7.72208 7.21334C8.4467 7.21334 9.19038 7.3297 9.87685 7.54304C10.8112 6.41819 12.1842 5.72001 13.6715 5.72001C13.9957 5.72001 14.339 5.75879 14.6631 5.81698C16.57 2.34546 20.1549 0.17334 24.1213 0.17334C29.308 0.17334 33.6557 3.85819 34.7235 8.84243C35.2765 8.70667 35.8676 8.64849 36.4588 8.66788C38.2322 8.72607 39.8721 9.50183 41.1116 10.8206C42.332 12.1588 42.9803 13.8849 42.904 15.6885C42.7705 19.3346 39.8339 22.2049 36.249 22.2049H33.6175C32.9882 22.2049 32.4734 22.7285 32.4734 23.3685V25.3855C32.4734 26.1418 31.8632 26.7624 31.1195 26.7624L31.1004 26.7818Z" fill="#61EDE2"/><path d="M12.1076 25.6182C13.061 25.6182 13.8238 26.394 13.8238 27.3637C13.8238 28.3334 13.061 29.1091 12.1076 29.1091C11.1541 29.1091 10.3914 28.3334 10.3914 27.3637C10.3914 26.394 11.1541 25.6182 12.1076 25.6182ZM12.1076 22.8837C9.66675 22.8837 7.68359 24.9006 7.68359 27.3831C7.68359 29.8655 9.66675 31.8825 12.1076 31.8825C14.5484 31.8825 16.5315 29.8655 16.5315 27.3831C16.5315 24.9006 14.5484 22.8837 12.1076 22.8837Z" fill="#61EDE2"/><path d="M31.0997 27.7321C32.0532 27.7321 32.8159 28.5079 32.8159 29.4776C32.8159 30.4473 32.0532 31.223 31.0997 31.223C30.1463 31.223 29.3836 30.4473 29.3836 29.4776C29.3836 28.5079 30.1463 27.7321 31.0997 27.7321ZM31.0997 24.9976C28.6589 24.9976 26.6758 27.0145 26.6758 29.497C26.6758 31.9794 28.6589 33.9963 31.0997 33.9963C33.5406 33.9963 35.5237 31.9794 35.5237 29.497C35.5237 27.0145 33.5406 24.9976 31.0997 24.9976Z" fill="#61EDE2"/><path d="M21.6036 33.1624C22.5571 33.1624 23.3198 33.9382 23.3198 34.9079C23.3198 35.8776 22.5571 36.6534 21.6036 36.6534C20.6502 36.6534 19.8875 35.8776 19.8875 34.9079C19.8875 33.9382 20.6502 33.1624 21.6036 33.1624ZM21.6036 30.4085C19.1628 30.4085 17.1797 32.4255 17.1797 34.9079C17.1797 37.3903 19.1628 39.4073 21.6036 39.4073C24.0445 39.4073 26.0276 37.3903 26.0276 34.9079C26.0276 32.4255 24.0445 30.4085 21.6036 30.4085Z" fill="#61EDE2"/><path d="M21.6039 32.8134C20.8602 32.8134 20.25 32.1928 20.25 31.4364V17.8994C20.25 17.1431 20.8602 16.5225 21.6039 16.5225C22.3476 16.5225 22.9578 17.1431 22.9578 17.8994V31.4364C22.9578 32.1928 22.3476 32.8134 21.6039 32.8134Z" fill="#61EDE2"/><path d="M23.4536 20.0521C22.3857 20.0521 21.3941 19.6254 20.6504 18.8691C20.1165 18.326 20.1165 17.4533 20.6504 16.9297C21.1844 16.3867 22.0425 16.3867 22.5573 16.9297C22.7861 17.1624 23.1103 17.2982 23.4536 17.2982C23.7968 17.2982 24.1019 17.1624 24.3498 16.9297C24.8456 16.4254 24.8456 15.6109 24.3498 15.126C23.8159 14.583 23.8159 13.7103 24.3498 13.1867C24.8837 12.663 25.7418 12.6436 26.2567 13.1867C27.8012 14.7576 27.8012 17.3176 26.2567 18.8885C25.513 19.6448 24.5214 20.0715 23.4536 20.0715V20.0521Z" fill="#61EDE2"/></svg>
