<?xml version="1.0" encoding="UTF-8" standalone="no"?>
<!-- Created with Inkscape (http://www.inkscape.org/) -->

<svg
   viewBox="0 0 192 192"
   version="1.1"
   id="svg1"
   width="192"
   height="192"
   xmlns="http://www.w3.org/2000/svg"
   xmlns:svg="http://www.w3.org/2000/svg">
  <defs
     id="defs1" />
  <path
     d="m 164.55879,57.205584 c 0,2.124655 1.72711,3.846884 3.85685,3.846884 2.13186,0 3.85896,-1.722229 3.85896,-3.846884 0,-2.124442 -1.7271,-3.846884 -3.85896,-3.846884 -2.12974,0 -3.85685,1.722442 -3.85685,3.846884 z"
     fill="#00f0e2"
     id="path7"
     style="stroke-width:2.11915" />
  <path
     d="m 160.66592,61.052257 h -7.7158 c -2.14458,0 -3.88228,1.73346 -3.88228,3.872101 0,2.138642 1.7377,3.872314 3.88228,3.872314 h 7.7158 c 2.14458,0 3.8844,-1.733672 3.8844,-3.872314 0,-2.138641 -1.73982,-3.872101 -3.8844,-3.872101 z"
     fill="#00f0e2"
     id="path8"
     style="stroke-width:2.11915" />
  <path
     d="m 160.69135,45.665356 h -7.76666 c -2.12975,0 -3.85685,1.722229 -3.85685,3.846884 0,2.124655 1.7271,3.846884 3.85685,3.846884 h 7.76666 c 2.13186,0 3.85897,-1.722229 3.85897,-3.846884 0,-2.124655 -1.72711,-3.846884 -3.85897,-3.846884 z"
     fill="#00f0e2"
     id="path9"
     style="stroke-width:2.11915" />
  <path
     d="m 137.44645,130.50067 c -2.13186,0 -3.85896,1.72223 -3.85896,3.84688 0,2.12445 -1.72711,3.84689 -3.85685,3.84689 h -7.69037 c -2.14458,0 -3.8844,1.73367 -3.8844,3.8721 0,2.13864 -1.7377,3.87231 -3.88227,3.87231 h -7.74124 c -2.12974,0 -3.85896,1.72223 -3.85896,3.84689 0,2.12465 -1.7271,3.84688 -3.856845,3.84688 h -7.766672 c -2.12974,0 -3.856843,-1.72223 -3.856843,-3.84688 0,-2.12466 -1.727104,-3.84689 -3.858964,-3.84689 H 75.59284 c -2.144575,0 -3.882274,-1.73367 -3.882274,-3.87231 0,-2.13843 -1.739818,-3.8721 -3.884393,-3.8721 h -7.690377 c -2.129741,0 -3.856844,-1.72244 -3.856844,-3.84689 0,-2.12465 -1.727104,-3.84688 -3.858964,-3.84688 h -7.741236 c -2.144575,0 -3.882274,-1.73367 -3.882274,-3.87231 0,-2.13843 -1.737699,-3.87211 -3.882274,-3.87211 H 21.48259 c -2.144575,0 -3.884393,1.74639 -3.884393,3.88482 0,2.12466 1.727103,3.8596 3.858963,3.8596 2.129741,0 3.856844,1.72223 3.856844,3.84688 0,2.12445 1.727103,3.84689 3.858963,3.84689 h 7.741237 c 2.144575,0 3.882274,1.73367 3.882274,3.8721 0,2.13864 1.737699,3.87231 3.882274,3.87231 h 7.741236 c 2.13186,0 3.858964,1.72223 3.858964,3.84689 0,2.12465 1.727103,3.84688 3.856844,3.84688 h 7.715807 c 2.13186,0 3.858963,1.72223 3.858963,3.84688 0,2.12466 1.727103,3.84689 3.856844,3.84689 h 7.741237 c 2.144574,0 3.884393,1.73367 3.884393,3.8721 0,2.13864 1.737698,3.87231 3.882273,3.87231 h 7.715812 c 2.144575,0 3.882275,-1.73367 3.882275,-3.87231 0,-2.13843 1.73982,-3.8721 3.88439,-3.8721 h 7.74124 c 2.12974,0 3.85684,-1.72223 3.85684,-3.84689 0,-2.12465 1.72711,-3.84688 3.85897,-3.84688 h 7.7158 c 2.12974,0 3.85685,-1.72223 3.85685,-3.84688 0,-2.12466 1.7271,-3.84689 3.85896,-3.84689 h 7.74124 c 2.14457,0 3.88227,-1.73367 3.88227,-3.87231 0,-2.13843 1.73982,-3.8721 3.88439,-3.8721 h 7.73912 c 2.13186,0 3.85896,-1.72244 3.85896,-3.84689 0,-2.12465 1.72711,-3.84688 3.85685,-3.84688 2.13186,0 3.85896,-1.73494 3.85896,-3.8596 0,-2.13843 -1.73982,-3.88482 -3.88439,-3.88482 h -15.4295 c -2.14457,0 -3.88439,1.73368 -3.88439,3.87211 0,2.13864 -1.7377,3.87231 -3.88227,3.87231 z"
     fill="#00f0e2"
     id="path10"
     style="stroke-width:2.11915" />
  <path
     d="m 137.44645,107.36617 c -2.13186,0 -3.85896,1.72223 -3.85896,3.84689 0,2.12444 -1.72711,3.84688 -3.85685,3.84688 h -7.7158 c -2.13186,0 -3.85897,1.72223 -3.85897,3.84689 0,2.12465 -1.7271,3.84688 -3.85684,3.84688 h -7.74124 c -2.14457,0 -3.88439,1.73367 -3.88439,3.8721 0,2.13864 -1.7377,3.87232 -3.882275,3.87232 h -7.715812 c -2.144575,0 -3.882273,-1.73368 -3.882273,-3.87232 0,-2.13843 -1.739819,-3.8721 -3.884393,-3.8721 H 75.56741 c -2.129741,0 -3.856844,-1.72223 -3.856844,-3.84688 0,-2.12466 -1.727103,-3.84689 -3.858963,-3.84689 h -7.715807 c -2.129741,0 -3.856844,-1.72244 -3.856844,-3.84688 0,-2.12466 -1.727104,-3.84689 -3.858964,-3.84689 h -7.741236 c -2.144575,0 -3.882274,-1.73367 -3.882274,-3.87231 0,-2.13843 -1.737699,-3.872103 -3.882274,-3.872103 H 21.48259 c -2.144575,0 -3.884393,1.746393 -3.884393,3.884823 0,2.12465 1.727103,3.85959 3.858963,3.85959 2.129741,0 3.856844,1.72223 3.856844,3.84689 0,2.12444 1.727103,3.84688 3.858963,3.84688 h 7.764548 c 2.13186,0 3.858963,1.72223 3.858963,3.84689 0,2.12465 1.727103,3.84688 3.856844,3.84688 h 7.741237 c 2.144574,0 3.884393,1.73367 3.884393,3.8721 0,2.13864 1.737698,3.87232 3.882273,3.87232 h 7.690378 c 2.13186,0 3.858963,1.72223 3.858963,3.84688 0,2.12465 1.727103,3.84688 3.856844,3.84688 h 7.741237 c 2.144574,0 3.884393,1.73368 3.884393,3.87211 0,2.13864 1.737698,3.87231 3.882273,3.87231 h 7.715812 c 2.144575,0 3.882275,-1.73367 3.882275,-3.87231 0,-2.13843 1.73982,-3.87211 3.88439,-3.87211 h 7.74124 c 2.12974,0 3.85684,-1.72223 3.85684,-3.84688 0,-2.12465 1.72711,-3.84688 3.85897,-3.84688 h 7.69037 c 2.14458,0 3.88228,-1.73368 3.88228,-3.87232 0,-2.13843 1.73982,-3.8721 3.88439,-3.8721 h 7.74124 c 2.12974,0 3.85684,-1.72223 3.85684,-3.84688 0,-2.12466 1.7271,-3.84689 3.85896,-3.84689 h 7.76455 c 2.13186,0 3.85896,-1.72244 3.85896,-3.84688 0,-2.12466 1.72711,-3.84689 3.85685,-3.84689 2.13186,0 3.85896,-1.73494 3.85896,-3.85959 0,-2.13843 -1.73982,-3.884823 -3.88439,-3.884823 h -15.4295 c -2.14457,0 -3.88439,1.733673 -3.88439,3.872103 0,2.13864 -1.7377,3.87231 -3.88227,3.87231 z"
     fill="#00f0e2"
     id="path11"
     style="stroke-width:2.11915" />
  <path
     d="m 137.44645,84.237611 c -2.13186,0 -3.85896,1.722441 -3.85896,3.846884 0,2.124654 -1.72711,3.846884 -3.85685,3.846884 h -7.7158 c -2.13186,0 -3.85897,1.722441 -3.85897,3.846884 0,2.124654 -1.7271,3.846884 -3.85684,3.846884 h -7.74124 c -2.14457,0 -3.88439,1.733673 -3.88439,3.872313 0,2.13843 -1.7377,3.87211 -3.882275,3.87211 h -7.715812 c -2.144575,0 -3.882273,-1.73368 -3.882273,-3.87211 0,-2.13864 -1.739819,-3.872313 -3.884393,-3.872313 H 75.56741 c -2.129741,0 -3.856844,-1.72223 -3.856844,-3.846884 0,-2.124443 -1.727103,-3.846884 -3.858963,-3.846884 h -7.715807 c -2.129741,0 -3.856844,-1.72223 -3.856844,-3.846884 0,-2.124443 -1.727104,-3.846884 -3.858964,-3.846884 h -7.741236 c -2.144575,0 -3.882274,-1.733673 -3.882274,-3.872102 0,-2.138641 -1.737699,-3.872314 -3.882274,-3.872314 H 21.48259 c -2.144575,0 -3.884393,1.746387 -3.884393,3.885029 0,2.124443 1.727103,3.859387 3.858963,3.859387 2.129741,0 3.856844,1.722441 3.856844,3.846884 0,2.124654 1.727103,3.846884 3.858963,3.846884 h 7.764548 c 2.13186,0 3.858963,1.722441 3.858963,3.846884 0,2.124654 1.727103,3.846884 3.856844,3.846884 h 7.741237 c 2.144574,0 3.884393,1.733673 3.884393,3.872313 0,2.13843 1.737698,3.87211 3.882273,3.87211 h 7.690378 c 2.13186,0 3.858963,1.72244 3.858963,3.84688 0,2.12465 1.727103,3.84688 3.856844,3.84688 h 7.766666 c 2.13186,0 3.858964,1.72244 3.858964,3.84689 0,2.12465 1.727103,3.84688 3.856843,3.84688 h 7.766672 c 2.129745,0 3.856845,-1.72223 3.856845,-3.84688 0,-2.12445 1.72922,-3.84689 3.85896,-3.84689 h 7.76667 c 2.12974,0 3.85684,-1.72223 3.85684,-3.84688 0,-2.12444 1.72711,-3.84688 3.85897,-3.84688 h 7.69037 c 2.14458,0 3.88228,-1.73368 3.88228,-3.87211 0,-2.13864 1.73982,-3.872313 3.88439,-3.872313 h 7.74124 c 2.12974,0 3.85684,-1.72223 3.85684,-3.846884 0,-2.124443 1.7271,-3.846884 3.85896,-3.846884 h 7.76455 c 2.13186,0 3.85896,-1.72223 3.85896,-3.846884 0,-2.124443 1.72711,-3.846884 3.85685,-3.846884 2.13186,0 3.85896,-1.734944 3.85896,-3.859387 0,-2.138642 -1.73982,-3.885029 -3.88439,-3.885029 h -15.4295 c -2.14457,0 -3.88439,1.733673 -3.88439,3.872314 0,2.138429 -1.7377,3.872102 -3.88227,3.872102 z"
     fill="#00f0e2"
     id="path12"
     style="stroke-width:2.11915" />
  <path
     d="m 145.22583,68.799851 h -7.76666 c -2.13186,0 -3.85897,1.722229 -3.85897,3.846884 0,2.124655 1.72711,3.846884 3.85897,3.846884 h 7.76666 c 2.12974,0 3.85685,-1.722229 3.85685,-3.846884 0,-2.124655 -1.72711,-3.846884 -3.85685,-3.846884 z"
     fill="#00f0e2"
     id="path13"
     style="stroke-width:2.11915" />
  <path
     d="m 145.2004,37.923696 h -7.71581 c -2.14457,0 -3.88439,1.733672 -3.88439,3.872101 0,2.138642 1.73982,3.872314 3.88439,3.872314 h 7.71581 c 2.14458,0 3.88228,-1.733672 3.88228,-3.872314 0,-2.138429 -1.7377,-3.872101 -3.88228,-3.872101 z"
     fill="#00f0e2"
     id="path14"
     style="stroke-width:2.11915" />
  <path
     d="m 129.70521,76.493195 h -7.66494 c -2.14458,0 -3.88228,1.733673 -3.88228,3.872314 0,2.138429 1.7377,3.872102 3.88228,3.872102 h 7.66494 c 2.14458,0 3.8844,-1.733673 3.8844,-3.872102 0,-2.138641 -1.73982,-3.872314 -3.8844,-3.872314 z"
     fill="#00f0e2"
     id="path15"
     style="stroke-width:2.11915" />
  <path
     d="m 129.73064,30.230267 h -7.7158 c -2.12974,0 -3.85685,1.722314 -3.85685,3.846905 0,2.124506 1.72711,3.846947 3.85685,3.846947 h 7.7158 c 2.13186,0 3.85897,-1.722441 3.85897,-3.846947 0,-2.124591 -1.72711,-3.846905 -3.85897,-3.846905 z"
     fill="#00f0e2"
     id="path16"
     style="stroke-width:2.11915" />
  <path
     d="m 114.31598,84.234856 h -7.76666 c -2.13186,0 -3.85897,1.722229 -3.85897,3.846884 0,2.124655 1.72711,3.846884 3.85897,3.846884 h 7.76666 c 2.12974,0 3.85685,-1.722229 3.85685,-3.846884 0,-2.124655 -1.72711,-3.846884 -3.85685,-3.846884 z"
     fill="#00f0e2"
     id="path17"
     style="stroke-width:2.11915" />
  <path
     d="m 114.31598,22.530819 h -7.76666 c -2.13186,0 -3.85897,1.722314 -3.85897,3.846906 0,2.12457 1.72711,3.846884 3.85897,3.846884 h 7.76666 c 2.12974,0 3.85685,-1.722314 3.85685,-3.846884 0,-2.124592 -1.72711,-3.846906 -3.85685,-3.846906 z"
     fill="#00f0e2"
     id="path18"
     style="stroke-width:2.11915" />
  <path
     d="M 98.825025,91.9282 H 91.05836 c -2.13186,0 -3.858963,1.722441 -3.858963,3.847096 0,2.124443 1.727103,3.846881 3.858963,3.846881 h 7.766665 c 2.129745,0 3.856855,-1.722438 3.856855,-3.846881 0,-2.124655 -1.72711,-3.847096 -3.856855,-3.847096 z"
     fill="#00f0e2"
     id="path19"
     style="stroke-width:2.11915" />
  <path
     d="M 98.799595,14.789201 H 91.08379 c -2.144575,0 -3.884393,1.733651 -3.884393,3.872208 0,2.138556 1.739818,3.872186 3.884393,3.872186 h 7.715805 c 2.144585,0 3.882285,-1.73363 3.882285,-3.872186 0,-2.138557 -1.7377,-3.872208 -3.882285,-3.872208 z"
     fill="#00f0e2"
     id="path20"
     style="stroke-width:2.11915" />
  <path
     d="M 83.334076,84.234856 H 75.56741 c -2.13186,0 -3.858963,1.722229 -3.858963,3.846884 0,2.124655 1.727103,3.846884 3.858963,3.846884 h 7.766666 c 2.129741,0 3.856844,-1.722229 3.856844,-3.846884 0,-2.124655 -1.727103,-3.846884 -3.856844,-3.846884 z"
     fill="#00f0e2"
     id="path21"
     style="stroke-width:2.11915" />
  <path
     d="M 83.334076,22.530819 H 75.56741 c -2.13186,0 -3.858963,1.722314 -3.858963,3.846906 0,2.12457 1.727103,3.846884 3.858963,3.846884 h 7.766666 c 2.129741,0 3.856844,-1.722314 3.856844,-3.846884 0,-2.124592 -1.727103,-3.846906 -3.856844,-3.846906 z"
     fill="#00f0e2"
     id="path22"
     style="stroke-width:2.11915" />
  <path
     d="M 67.838888,76.493195 H 60.17394 c -2.144575,0 -3.884393,1.733673 -3.884393,3.872314 0,2.138429 1.739818,3.872102 3.884393,3.872102 h 7.664948 c 2.144575,0 3.882274,-1.733673 3.882274,-3.872102 0,-2.138641 -1.737699,-3.872314 -3.882274,-3.872314 z"
     fill="#00f0e2"
     id="path23"
     style="stroke-width:2.11915" />
  <path
     d="M 67.864318,30.230267 H 60.14851 c -2.13186,0 -3.858963,1.722314 -3.858963,3.846905 0,2.124506 1.727103,3.846947 3.858963,3.846947 h 7.715808 c 2.12974,0 3.856844,-1.722441 3.856844,-3.846947 0,-2.124591 -1.727104,-3.846905 -3.856844,-3.846905 z"
     fill="#00f0e2"
     id="path24"
     style="stroke-width:2.11915" />
  <path
     d="M 52.424227,68.799851 H 44.65756 c -2.13186,0 -3.858963,1.722229 -3.858963,3.846884 0,2.124655 1.727103,3.846884 3.858963,3.846884 h 7.766667 c 2.12974,0 3.856844,-1.722229 3.856844,-3.846884 0,-2.124655 -1.727104,-3.846884 -3.856844,-3.846884 z"
     fill="#00f0e2"
     id="path25"
     style="stroke-width:2.11915" />
  <path
     d="M 52.398797,37.923696 H 44.68299 c -2.144575,0 -3.884393,1.733672 -3.884393,3.872101 0,2.138642 1.739818,3.872314 3.884393,3.872314 h 7.715807 c 2.144575,0 3.882274,-1.733672 3.882274,-3.872314 0,-2.138429 -1.737699,-3.872101 -3.882274,-3.872101 z"
     fill="#00f0e2"
     id="path26"
     style="stroke-width:2.11915" />
  <path
     d="M 36.905728,61.052257 H 29.19204 c -2.146694,0 -3.884393,1.73346 -3.884393,3.872101 0,2.138642 1.737699,3.872314 3.884393,3.872314 h 7.713688 c 2.146693,0 3.884392,-1.733672 3.884392,-3.872314 0,-2.138641 -1.737699,-3.872101 -3.884392,-3.872101 z"
     fill="#00f0e2"
     id="path27"
     style="stroke-width:2.11915" />
  <path
     d="M 36.931157,45.665356 H 29.16661 c -2.13186,0 -3.858963,1.722229 -3.858963,3.846884 0,2.124655 1.727103,3.846884 3.858963,3.846884 h 7.764547 c 2.13186,0 3.858963,-1.722229 3.858963,-3.846884 0,-2.124655 -1.727103,-3.846884 -3.858963,-3.846884 z"
     fill="#00f0e2"
     id="path28"
     style="stroke-width:2.11915" />
  <path
     d="m 17.598197,57.205584 c 0,2.124655 1.727103,3.846884 3.858963,3.846884 2.129741,0 3.856844,-1.722229 3.856844,-3.846884 0,-2.124442 -1.727103,-3.846884 -3.856844,-3.846884 -2.13186,0 -3.858963,1.722442 -3.858963,3.846884 z"
     fill="#00f0e2"
     id="path29"
     style="stroke-width:2.11915" />
</svg>
