<svg width="233" height="25" viewBox="0 0 233 25" fill="none" xmlns="http://www.w3.org/2000/svg">
<path d="M3.336 16.3109C1.688 14.6949 0.864 12.6469 0.864 10.1669C0.864 7.68691 1.688 5.63891 3.336 4.02291C5 2.40691 7.032 1.59891 9.432 1.59891C11.256 1.59891 12.872 2.06291 14.28 2.99091C15.704 3.91891 16.72 5.22291 17.328 6.90291H13.272C12.52 5.43091 11.24 4.69491 9.432 4.69491C7.912 4.69491 6.672 5.19891 5.712 6.20691C4.768 7.19891 4.296 8.52691 4.296 10.1909C4.296 11.8389 4.768 13.1669 5.712 14.1749C6.672 15.1669 7.84 15.6629 9.216 15.6629C10.608 15.6629 11.696 15.3269 12.48 14.6549C13.28 13.9669 13.776 13.0469 13.968 11.8949H8.4V9.32691H17.592V11.8949C17.304 13.7189 16.408 15.3189 14.904 16.6949C13.4 18.0549 11.504 18.7349 9.216 18.7349C6.944 18.7349 4.984 17.9269 3.336 16.3109ZM23.6293 5.29491V7.64691C24.5253 5.95091 25.8213 5.10291 27.5173 5.10291V8.55891H26.6773C25.6693 8.55891 24.9093 8.81491 24.3973 9.32691C23.8853 9.82291 23.6293 10.6869 23.6293 11.9189V18.5909H20.2453V5.29491H23.6293ZM35.541 18.7829C33.605 18.7829 32.029 18.1589 30.813 16.9109C29.597 15.6469 28.989 13.9829 28.989 11.9189C28.989 9.85491 29.597 8.20691 30.813 6.97491C32.045 5.72691 33.629 5.10291 35.565 5.10291C37.517 5.10291 39.117 5.71091 40.365 6.92691C41.613 8.12691 42.237 9.73491 42.237 11.7509C42.237 12.2149 42.205 12.6469 42.141 13.0469H32.445C32.525 13.9109 32.845 14.6069 33.405 15.1349C33.965 15.6629 34.677 15.9269 35.541 15.9269C36.709 15.9269 37.573 15.4469 38.133 14.4869H41.781C41.397 15.7509 40.653 16.7829 39.549 17.5829C38.445 18.3829 37.109 18.7829 35.541 18.7829ZM38.733 10.8629C38.685 9.98291 38.357 9.27891 37.749 8.75091C37.157 8.22291 36.437 7.95891 35.589 7.95891C34.741 7.95891 34.029 8.22291 33.453 8.75091C32.893 9.27891 32.557 9.98291 32.445 10.8629H38.733ZM48.4776 18.3509L43.2696 5.29491H47.0616L50.4456 14.7509L54.0216 5.29491H57.5496L49.2456 24.8789H45.7176L48.4776 18.3509ZM77.6659 10.1909C77.2339 10.7189 76.6019 11.1429 75.7699 11.4629C74.9539 11.7669 73.9939 11.9189 72.8899 11.9189H70.1059V18.5909H66.7219V1.83891H72.8899C74.8259 1.83891 76.3139 2.32691 77.3539 3.30291C78.4099 4.26291 78.9379 5.39891 78.9379 6.71091C78.9379 8.02291 78.5139 9.18291 77.6659 10.1909ZM70.1059 9.32691H72.8899C73.7379 9.32691 74.3859 9.11091 74.8339 8.67891C75.2819 8.23091 75.5059 7.63091 75.5059 6.87891C75.5059 6.12691 75.2819 5.53491 74.8339 5.10291C74.3859 4.65491 73.7379 4.43091 72.8899 4.43091H70.1059V9.32691ZM89.9595 14.8229C90.6635 14.1189 91.0155 13.1589 91.0155 11.9429C91.0155 10.7269 90.6635 9.77491 89.9595 9.08691C89.2555 8.38291 88.4315 8.03091 87.4875 8.03091C86.5435 8.03091 85.7195 8.37491 85.0155 9.06291C84.3275 9.75091 83.9835 10.7029 83.9835 11.9189C83.9835 13.1349 84.3355 14.0949 85.0395 14.7989C85.7435 15.5029 86.5595 15.8549 87.4875 15.8549C88.4315 15.8549 89.2555 15.5109 89.9595 14.8229ZM82.3275 16.8629C81.1435 15.5669 80.5515 13.9189 80.5515 11.9189C80.5515 9.91891 81.1435 8.28691 82.3275 7.02291C83.5115 5.74291 85.0155 5.10291 86.8395 5.10291C88.6635 5.10291 90.0555 5.85491 91.0155 7.35891V5.29491H94.3755V18.5909H91.0155V16.3589C90.0075 17.9749 88.6075 18.7829 86.8155 18.7829C85.0235 18.7829 83.5275 18.1429 82.3275 16.8629ZM107.3 14.7989C108.004 14.0949 108.356 13.1349 108.356 11.9189C108.356 10.7029 108.004 9.75091 107.3 9.06291C106.612 8.37491 105.796 8.03091 104.852 8.03091C103.908 8.03091 103.084 8.38291 102.38 9.08691C101.692 9.77491 101.348 10.7269 101.348 11.9429C101.348 13.1589 101.692 14.1189 102.38 14.8229C103.084 15.5109 103.908 15.8549 104.852 15.8549C105.796 15.8549 106.612 15.5029 107.3 14.7989ZM101.348 7.35891C102.292 5.85491 103.676 5.10291 105.5 5.10291C107.324 5.10291 108.828 5.74291 110.012 7.02291C111.196 8.28691 111.788 9.92691 111.788 11.9429C111.788 13.9429 111.196 15.5829 110.012 16.8629C108.828 18.1429 107.332 18.7829 105.524 18.7829C103.732 18.7829 102.34 17.9749 101.348 16.3589V24.9269H97.9641V5.29491H101.348V7.35891ZM120.057 18.7829C118.121 18.7829 116.545 18.1589 115.329 16.9109C114.113 15.6469 113.505 13.9829 113.505 11.9189C113.505 9.85491 114.113 8.20691 115.329 6.97491C116.561 5.72691 118.145 5.10291 120.081 5.10291C122.033 5.10291 123.633 5.71091 124.881 6.92691C126.129 8.12691 126.753 9.73491 126.753 11.7509C126.753 12.2149 126.721 12.6469 126.657 13.0469H116.961C117.041 13.9109 117.361 14.6069 117.921 15.1349C118.481 15.6629 119.193 15.9269 120.057 15.9269C121.225 15.9269 122.089 15.4469 122.649 14.4869H126.297C125.913 15.7509 125.169 16.7829 124.065 17.5829C122.961 18.3829 121.625 18.7829 120.057 18.7829ZM123.249 10.8629C123.201 9.98291 122.873 9.27891 122.265 8.75091C121.673 8.22291 120.953 7.95891 120.105 7.95891C119.257 7.95891 118.545 8.22291 117.969 8.75091C117.409 9.27891 117.073 9.98291 116.961 10.8629H123.249ZM132.801 5.29491V7.64691C133.697 5.95091 134.993 5.10291 136.689 5.10291V8.55891H135.849C134.841 8.55891 134.081 8.81491 133.569 9.32691C133.057 9.82291 132.801 10.6869 132.801 11.9189V18.5909H129.417V5.29491H132.801ZM149.676 11.9189V18.5909H146.292V1.83891H152.46C154.396 1.83891 155.884 2.32691 156.924 3.30291C157.98 4.26291 158.508 5.45491 158.508 6.87891C158.508 7.93491 158.188 8.91891 157.548 9.83091C156.908 10.7429 155.9 11.3669 154.524 11.7029L158.796 18.5909H154.788L150.78 11.9189H149.676ZM149.676 4.43091V9.32691H152.46C153.308 9.32691 153.956 9.11091 154.404 8.67891C154.852 8.23091 155.076 7.63091 155.076 6.87891C155.076 6.12691 154.852 5.53491 154.404 5.10291C153.956 4.65491 153.308 4.43091 152.46 4.43091H149.676ZM167.494 18.7829C165.558 18.7829 163.982 18.1589 162.766 16.9109C161.55 15.6469 160.942 13.9829 160.942 11.9189C160.942 9.85491 161.55 8.20691 162.766 6.97491C163.998 5.72691 165.582 5.10291 167.518 5.10291C169.47 5.10291 171.07 5.71091 172.318 6.92691C173.566 8.12691 174.19 9.73491 174.19 11.7509C174.19 12.2149 174.158 12.6469 174.094 13.0469H164.398C164.478 13.9109 164.798 14.6069 165.358 15.1349C165.918 15.6629 166.63 15.9269 167.494 15.9269C168.662 15.9269 169.526 15.4469 170.086 14.4869H173.734C173.35 15.7509 172.606 16.7829 171.502 17.5829C170.398 18.3829 169.062 18.7829 167.494 18.7829ZM170.686 10.8629C170.638 9.98291 170.31 9.27891 169.702 8.75091C169.11 8.22291 168.39 7.95891 167.542 7.95891C166.694 7.95891 165.982 8.22291 165.406 8.75091C164.846 9.27891 164.51 9.98291 164.398 10.8629H170.686ZM185.327 14.8229C186.031 14.1189 186.383 13.1589 186.383 11.9429C186.383 10.7269 186.031 9.77491 185.327 9.08691C184.623 8.38291 183.799 8.03091 182.855 8.03091C181.911 8.03091 181.087 8.37491 180.383 9.06291C179.695 9.75091 179.351 10.7029 179.351 11.9189C179.351 13.1349 179.703 14.0949 180.407 14.7989C181.111 15.5029 181.927 15.8549 182.855 15.8549C183.799 15.8549 184.623 15.5109 185.327 14.8229ZM177.695 16.8629C176.511 15.5669 175.919 13.9189 175.919 11.9189C175.919 9.91891 176.511 8.28691 177.695 7.02291C178.879 5.74291 180.383 5.10291 182.207 5.10291C184.031 5.10291 185.423 5.85491 186.383 7.35891V5.29491H189.743V18.5909H186.383V16.3589C185.375 17.9749 183.975 18.7829 182.183 18.7829C180.391 18.7829 178.895 18.1429 177.695 16.8629ZM201.803 14.8229C202.507 14.1189 202.859 13.1589 202.859 11.9429C202.859 10.7269 202.507 9.77491 201.803 9.08691C201.099 8.38291 200.275 8.03091 199.331 8.03091C198.387 8.03091 197.563 8.37491 196.859 9.06291C196.171 9.75091 195.827 10.7029 195.827 11.9189C195.827 13.1349 196.179 14.0949 196.883 14.7989C197.587 15.5029 198.403 15.8549 199.331 15.8549C200.275 15.8549 201.099 15.5109 201.803 14.8229ZM194.171 16.8629C192.987 15.5669 192.395 13.9189 192.395 11.9189C192.395 9.91891 192.987 8.28691 194.171 7.02291C195.355 5.74291 196.859 5.10291 198.683 5.10291C200.507 5.10291 201.899 5.85491 202.859 7.35891V0.830912H206.219V18.5909H202.859V16.3589C201.851 17.9749 200.451 18.7829 198.659 18.7829C196.867 18.7829 195.371 18.1429 194.171 16.8629ZM215.424 18.7829C213.488 18.7829 211.912 18.1589 210.696 16.9109C209.48 15.6469 208.872 13.9829 208.872 11.9189C208.872 9.85491 209.48 8.20691 210.696 6.97491C211.928 5.72691 213.512 5.10291 215.448 5.10291C217.4 5.10291 219 5.71091 220.248 6.92691C221.496 8.12691 222.12 9.73491 222.12 11.7509C222.12 12.2149 222.088 12.6469 222.024 13.0469H212.328C212.408 13.9109 212.728 14.6069 213.288 15.1349C213.848 15.6629 214.56 15.9269 215.424 15.9269C216.592 15.9269 217.456 15.4469 218.016 14.4869H221.664C221.28 15.7509 220.536 16.7829 219.432 17.5829C218.328 18.3829 216.992 18.7829 215.424 18.7829ZM218.616 10.8629C218.568 9.98291 218.24 9.27891 217.632 8.75091C217.04 8.22291 216.32 7.95891 215.472 7.95891C214.624 7.95891 213.912 8.22291 213.336 8.75091C212.776 9.27891 212.44 9.98291 212.328 10.8629H218.616ZM228.168 5.29491V7.64691C229.064 5.95091 230.36 5.10291 232.056 5.10291V8.55891H231.216C230.208 8.55891 229.448 8.81491 228.936 9.32691C228.424 9.82291 228.168 10.6869 228.168 11.9189V18.5909H224.784V5.29491H228.168Z" fill="url(#paint0_linear_64_2126)"/>
<defs>
<linearGradient id="paint0_linear_64_2126" x1="0" y1="11.0909" x2="233" y2="11.0909" gradientUnits="userSpaceOnUse">
<stop stop-color="#838383"/>
<stop offset="1" stop-color="#444444"/>
</linearGradient>
</defs>
</svg>
