<svg width="395" height="100" viewBox="0 0 430 130" fill="none" xmlns="http://www.w3.org/2000/svg">
<path d="M0.335938 45.7477H13.6195L13.506 54.2386C14.9441 51.2196 17.0634 48.8422 19.864 47.1063C22.6645 45.3703 25.6164 44.5024 28.7197 44.5024C34.6235 44.5024 39.5055 46.5025 43.3657 50.5026L37.916 61.2578L37.5754 62.1635L36.5536 61.7107C36.3265 61.1069 36.0995 60.5031 35.8724 59.8993C35.6453 59.22 35.0777 58.4652 34.1694 57.635C33.1097 56.8048 31.9744 56.1633 30.7633 55.7104C29.628 55.2576 28.3791 55.0311 27.0167 55.0311C23.3835 55.0311 20.2046 56.2765 17.4797 58.7671C14.7549 61.2578 13.3925 65.258 13.3925 70.7676V98.3915H0.335938V45.7477Z" fill="white"/>
<path d="M72.0901 99.6368C67.0188 99.6368 62.4774 98.5801 58.4659 96.4668C54.53 94.3535 51.4267 91.2591 49.156 87.1834C46.8853 83.1078 45.7499 78.2019 45.7499 72.4658C45.7499 66.5788 46.8474 61.5597 49.0425 57.4086C51.3132 53.2575 54.3029 50.0875 58.0117 47.8988C61.7962 45.6345 65.997 44.5024 70.6141 44.5024C74.7014 44.5024 78.448 45.4458 81.8541 47.3327C85.3358 49.2196 88.0985 52.0876 90.1421 55.9368C92.2614 59.7106 93.3211 64.4278 93.3211 70.0884C93.3211 70.8431 93.2833 71.7488 93.2076 72.8055C93.2076 73.8621 93.1697 74.7678 93.094 75.5226H58.1253C58.2766 78.8435 59.0714 81.5606 60.5095 83.6739C61.9476 85.7117 63.7263 87.2212 65.8456 88.2023C67.965 89.1835 70.2357 89.6741 72.6577 89.6741C75.0041 89.6741 77.237 89.2967 79.3563 88.542C81.4756 87.7872 83.4436 86.5042 85.2601 84.6928L91.8451 91.0327C89.2717 94.0516 86.3198 96.2404 82.9894 97.599C79.6591 98.9575 76.0259 99.6368 72.0901 99.6368ZM58.3523 65.8995H80.8323C80.8323 62.2012 79.8861 59.3709 77.9939 57.4086C76.1016 55.4462 73.4525 54.4651 70.0464 54.4651C67.0945 54.4651 64.5211 55.4085 62.326 57.2954C60.131 59.1068 58.8065 61.9748 58.3523 65.8995Z" fill="white"/>
<path d="M114.893 99.75C109.065 99.75 104.523 98.3915 101.269 95.6744C98.0896 92.9573 96.5001 89.3722 96.5001 84.9192C96.5001 79.334 98.9979 74.7301 103.993 71.1073C109.065 67.409 116.407 65.5599 126.019 65.5599C126.549 65.5599 127.23 65.5599 128.063 65.5599C128.971 65.5599 129.917 65.5976 130.901 65.6731C130.371 61.2956 129.122 58.352 127.155 56.8425C125.187 55.2576 122.537 54.4651 119.207 54.4651C116.785 54.4651 114.514 54.8802 112.395 55.7104C110.276 56.4652 108.156 57.8992 106.037 60.0125L98.9979 52.314C102.025 49.5215 105.318 47.5214 108.875 46.3138C112.433 45.1062 116.066 44.5024 119.775 44.5024C124.165 44.5024 128.176 45.2194 131.809 46.6534C135.443 48.012 138.319 50.4272 140.438 53.899C142.557 57.2954 143.617 62.0126 143.617 68.0506V98.3915H130.334V92.7308C128.366 95.3725 126.095 97.2216 123.521 98.2782C120.948 99.2594 118.072 99.75 114.893 99.75ZM109.33 83.3342C109.33 85.7494 110.086 87.4476 111.6 88.4288C113.19 89.3345 115.12 89.7873 117.391 89.7873C121.478 89.7873 124.657 88.5797 126.927 86.1645C129.198 83.6738 130.561 79.7869 131.015 74.5036C130.031 74.5036 129.085 74.5036 128.176 74.5036C127.268 74.4282 126.473 74.3904 125.792 74.3904C119.737 74.3904 115.46 75.2207 112.963 76.8811C110.541 78.5416 109.33 80.6926 109.33 83.3342Z" fill="white"/>
<path d="M169.162 99.6368C165.227 99.6368 161.593 98.6179 158.263 96.5801C155.008 94.5422 152.359 91.4478 150.316 87.2966C148.272 83.1455 147.25 77.9755 147.25 71.7866C147.25 65.6731 148.234 60.6163 150.202 56.6161C152.17 52.5405 154.819 49.4837 158.15 47.4459C161.48 45.4081 165.189 44.3892 169.276 44.3892C171.925 44.3892 174.385 44.8798 176.656 45.8609C178.926 46.8421 180.705 48.4271 181.992 50.6158V22.426H195.73V23.4449C195.276 23.8977 194.973 24.4261 194.821 25.0299C194.746 25.5582 194.708 26.4262 194.708 27.6338L194.594 91.3723C194.594 92.5799 194.67 93.7498 194.821 94.8819C194.973 96.014 195.313 97.1839 195.843 98.3915H183.241C182.635 97.1839 182.295 96.2404 182.219 95.5611C182.143 94.8064 182.105 93.8252 182.105 92.6176C180.667 95.0328 178.813 96.8065 176.542 97.9386C174.272 99.0707 171.812 99.6368 169.162 99.6368ZM171.32 89.3345C178.283 89.3345 181.765 83.5229 181.765 71.8998C181.765 60.2012 178.17 54.3519 170.979 54.3519C167.346 54.3519 164.583 55.8991 162.691 58.9936C160.799 62.088 159.853 66.2769 159.853 71.5601C159.853 77.1453 160.95 81.5228 163.145 84.6928C165.416 87.7872 168.141 89.3345 171.32 89.3345Z" fill="white"/>
<path d="M225.362 99.6368C220.291 99.6368 215.75 98.5801 211.738 96.4668C207.802 94.3535 204.699 91.2591 202.428 87.1834C200.158 83.1078 199.022 78.2019 199.022 72.4658C199.022 66.5788 200.12 61.5597 202.315 57.4086C204.585 53.2575 207.575 50.0875 211.284 47.8988C215.068 45.6345 219.269 44.5024 223.886 44.5024C227.974 44.5024 231.72 45.4458 235.126 47.3327C238.608 49.2196 241.371 52.0876 243.414 55.9368C245.534 59.7106 246.593 64.4278 246.593 70.0884C246.593 70.8431 246.556 71.7488 246.48 72.8055C246.48 73.8621 246.442 74.7678 246.366 75.5226H211.398C211.549 78.8435 212.344 81.5606 213.782 83.6739C215.22 85.7117 216.999 87.2212 219.118 88.2023C221.237 89.1835 223.508 89.6741 225.93 89.6741C228.276 89.6741 230.509 89.2967 232.629 88.542C234.748 87.7872 236.716 86.5042 238.532 84.6928L245.117 91.0327C242.544 94.0516 239.592 96.2404 236.262 97.599C232.931 98.9575 229.298 99.6368 225.362 99.6368ZM211.625 65.8995H234.105C234.105 62.2012 233.158 59.3709 231.266 57.4086C229.374 55.4462 226.725 54.4651 223.319 54.4651C220.367 54.4651 217.793 55.4085 215.598 57.2954C213.403 59.1068 212.079 61.9748 211.625 65.8995Z" fill="white"/>
<path d="M255.79 45.7477H269.073L268.96 54.2386C270.398 51.2196 272.517 48.8422 275.318 47.1063C278.118 45.3703 281.07 44.5024 284.173 44.5024C290.077 44.5024 294.959 46.5025 298.819 50.5026L293.37 61.2578L293.029 62.1635L292.007 61.7107C291.78 61.1069 291.553 60.5031 291.326 59.8993C291.099 59.22 290.531 58.4652 289.623 57.635C288.563 56.8048 287.428 56.1633 286.217 55.7104C285.082 55.2576 283.833 55.0311 282.47 55.0311C278.837 55.0311 275.658 56.2765 272.934 58.7671C270.209 61.2578 268.846 65.258 268.846 70.7676V98.3915H255.79V45.7477Z" fill="white"/>
<path d="M390.695 20.7658C390.695 21.7684 391.51 22.5811 392.515 22.5811C393.521 22.5811 394.336 21.7684 394.336 20.7658C394.336 19.7633 393.521 18.9505 392.515 18.9505C391.51 18.9505 390.695 19.7633 390.695 20.7658Z" fill="white"/>
<path d="M388.858 22.581H385.217C384.205 22.581 383.385 23.399 383.385 24.4082C383.385 25.4174 384.205 26.2355 385.217 26.2355H388.858C389.87 26.2355 390.691 25.4174 390.691 24.4082C390.691 23.399 389.87 22.581 388.858 22.581Z" fill="white"/>
<path d="M388.87 15.3201H385.205C384.2 15.3201 383.385 16.1328 383.385 17.1354C383.385 18.138 384.2 18.9507 385.205 18.9507H388.87C389.876 18.9507 390.691 18.138 390.691 17.1354C390.691 16.1328 389.876 15.3201 388.87 15.3201Z" fill="white"/>
<path d="M377.901 55.3529C376.895 55.3529 376.08 56.1656 376.08 57.1682C376.08 58.1707 375.265 58.9835 374.26 58.9835H370.631C369.619 58.9835 368.798 59.8016 368.798 60.8107C368.798 61.8199 367.978 62.638 366.966 62.638H363.313C362.308 62.638 361.492 63.4507 361.492 64.4533C361.492 65.4559 360.677 66.2686 359.672 66.2686H356.007C355.002 66.2686 354.187 65.4559 354.187 64.4533C354.187 63.4507 353.372 62.638 352.366 62.638H348.713C347.701 62.638 346.881 61.8199 346.881 60.8107C346.881 59.8016 346.06 58.9835 345.048 58.9835H341.419C340.414 58.9835 339.599 58.1707 339.599 57.1682C339.599 56.1656 338.784 55.3529 337.778 55.3529H334.125C333.113 55.3529 332.293 54.5348 332.293 53.5256C332.293 52.5165 331.473 51.6984 330.461 51.6984H323.179C322.167 51.6984 321.346 52.5225 321.346 53.5316C321.346 54.5342 322.161 55.3529 323.167 55.3529C324.172 55.3529 324.987 56.1656 324.987 57.1682C324.987 58.1707 325.802 58.9835 326.808 58.9835H330.461C331.473 58.9835 332.293 59.8016 332.293 60.8107C332.293 61.8199 333.113 62.638 334.125 62.638H337.778C338.784 62.638 339.599 63.4507 339.599 64.4533C339.599 65.4559 340.414 66.2686 341.419 66.2686H345.06C346.066 66.2686 346.881 67.0813 346.881 68.0839C346.881 69.0865 347.696 69.8992 348.701 69.8992H352.354C353.366 69.8992 354.187 70.7173 354.187 71.7264C354.187 72.7356 355.007 73.5537 356.019 73.5537H359.66C360.672 73.5537 361.492 72.7356 361.492 71.7264C361.492 70.7173 362.313 69.8992 363.325 69.8992H366.978C367.983 69.8992 368.798 69.0865 368.798 68.0839C368.798 67.0813 369.613 66.2686 370.619 66.2686H374.26C375.265 66.2686 376.08 65.4559 376.08 64.4533C376.08 63.4507 376.895 62.638 377.901 62.638H381.554C382.566 62.638 383.386 61.8199 383.386 60.8107C383.386 59.8016 384.207 58.9835 385.219 58.9835H388.871C389.877 58.9835 390.692 58.1707 390.692 57.1682C390.692 56.1656 391.507 55.3529 392.512 55.3529C393.518 55.3529 394.333 54.5342 394.333 53.5316C394.333 52.5225 393.512 51.6984 392.5 51.6984H385.219C384.207 51.6984 383.386 52.5165 383.386 53.5256C383.386 54.5348 382.566 55.3529 381.554 55.3529H377.901Z" fill="white"/>
<path d="M377.901 44.436C376.895 44.436 376.08 45.2487 376.08 46.2513C376.08 47.2538 375.265 48.0666 374.26 48.0666H370.619C369.613 48.0666 368.798 48.8793 368.798 49.8819C368.798 50.8845 367.983 51.6972 366.978 51.6972H363.325C362.313 51.6972 361.492 52.5153 361.492 53.5244C361.492 54.5336 360.672 55.3517 359.66 55.3517H356.019C355.007 55.3517 354.187 54.5336 354.187 53.5244C354.187 52.5153 353.366 51.6972 352.354 51.6972H348.701C347.696 51.6972 346.881 50.8845 346.881 49.8819C346.881 48.8793 346.066 48.0666 345.06 48.0666H341.419C340.414 48.0666 339.599 47.2538 339.599 46.2513C339.599 45.2487 338.784 44.436 337.778 44.436H334.125C333.113 44.436 332.293 43.6179 332.293 42.6087C332.293 41.5996 331.473 40.7815 330.461 40.7815H323.179C322.167 40.7815 321.346 41.6056 321.346 42.6147C321.346 43.6173 322.161 44.436 323.167 44.436C324.172 44.436 324.987 45.2487 324.987 46.2513C324.987 47.2538 325.802 48.0666 326.808 48.0666H330.472C331.478 48.0666 332.293 48.8793 332.293 49.8819C332.293 50.8845 333.108 51.6972 334.113 51.6972H337.766C338.778 51.6972 339.599 52.5153 339.599 53.5244C339.599 54.5336 340.419 55.3517 341.431 55.3517H345.06C346.066 55.3517 346.881 56.1644 346.881 57.167C346.881 58.1696 347.696 58.9823 348.701 58.9823H352.354C353.366 58.9823 354.187 59.8004 354.187 60.8095C354.187 61.8187 355.007 62.6368 356.019 62.6368H359.66C360.672 62.6368 361.492 61.8187 361.492 60.8095C361.492 59.8004 362.313 58.9823 363.325 58.9823H366.978C367.983 58.9823 368.798 58.1696 368.798 57.167C368.798 56.1644 369.613 55.3517 370.619 55.3517H374.248C375.26 55.3517 376.08 54.5336 376.08 53.5244C376.08 52.5153 376.901 51.6972 377.913 51.6972H381.566C382.571 51.6972 383.386 50.8845 383.386 49.8819C383.386 48.8793 384.201 48.0666 385.207 48.0666H388.871C389.877 48.0666 390.692 47.2538 390.692 46.2513C390.692 45.2487 391.507 44.436 392.512 44.436C393.518 44.436 394.333 43.6173 394.333 42.6147C394.333 41.6056 393.512 40.7815 392.5 40.7815H385.219C384.207 40.7815 383.386 41.5996 383.386 42.6087C383.386 43.6179 382.566 44.436 381.554 44.436H377.901Z" fill="white"/>
<path d="M377.901 33.5219C376.895 33.5219 376.08 34.3347 376.08 35.3372C376.08 36.3398 375.265 37.1525 374.26 37.1525H370.619C369.613 37.1525 368.798 37.9653 368.798 38.9678C368.798 39.9704 367.983 40.7831 366.978 40.7831H363.325C362.313 40.7831 361.492 41.6012 361.492 42.6104C361.492 43.6195 360.672 44.4376 359.66 44.4376H356.019C355.007 44.4376 354.187 43.6195 354.187 42.6104C354.187 41.6012 353.366 40.7831 352.354 40.7831H348.701C347.696 40.7831 346.881 39.9704 346.881 38.9678C346.881 37.9653 346.066 37.1525 345.06 37.1525H341.419C340.414 37.1525 339.599 36.3398 339.599 35.3372C339.599 34.3347 338.784 33.5219 337.778 33.5219H334.125C333.113 33.5219 332.293 32.7038 332.293 31.6947C332.293 30.6855 331.473 29.8674 330.461 29.8674H323.179C322.167 29.8674 321.346 30.6915 321.346 31.7007C321.346 32.7032 322.161 33.5219 323.167 33.5219C324.172 33.5219 324.987 34.3347 324.987 35.3372C324.987 36.3398 325.802 37.1525 326.808 37.1525H330.472C331.478 37.1525 332.293 37.9653 332.293 38.9678C332.293 39.9704 333.108 40.7831 334.113 40.7831H337.766C338.778 40.7831 339.599 41.6012 339.599 42.6104C339.599 43.6195 340.419 44.4376 341.431 44.4376H345.06C346.066 44.4376 346.881 45.2504 346.881 46.2529C346.881 47.2555 347.696 48.0682 348.701 48.0682H352.366C353.372 48.0682 354.187 48.881 354.187 49.8835C354.187 50.8861 355.002 51.6988 356.007 51.6988H359.672C360.677 51.6988 361.492 50.8861 361.492 49.8835C361.492 48.881 362.308 48.0682 363.313 48.0682H366.978C367.983 48.0682 368.798 47.2555 368.798 46.2529C368.798 45.2504 369.613 44.4376 370.619 44.4376H374.248C375.26 44.4376 376.08 43.6195 376.08 42.6104C376.08 41.6012 376.901 40.7831 377.913 40.7831H381.566C382.571 40.7831 383.386 39.9704 383.386 38.9678C383.386 37.9653 384.201 37.1525 385.207 37.1525H388.871C389.877 37.1525 390.692 36.3398 390.692 35.3372C390.692 34.3347 391.507 33.5219 392.512 33.5219C393.518 33.5219 394.333 32.7032 394.333 31.7007C394.333 30.6915 393.512 29.8674 392.5 29.8674H385.219C384.207 29.8674 383.386 30.6855 383.386 31.6947C383.386 32.7038 382.566 33.5219 381.554 33.5219H377.901Z" fill="white"/>
<path d="M381.572 26.237H377.907C376.901 26.237 376.086 27.0497 376.086 28.0523C376.086 29.0549 376.901 29.8676 377.907 29.8676H381.572C382.577 29.8676 383.392 29.0549 383.392 28.0523C383.392 27.0497 382.577 26.237 381.572 26.237Z" fill="white"/>
<path d="M381.56 11.6669H377.919C376.907 11.6669 376.086 12.485 376.086 13.4941C376.086 14.5033 376.907 15.3214 377.919 15.3214H381.56C382.572 15.3214 383.392 14.5033 383.392 13.4941C383.392 12.485 382.572 11.6669 381.56 11.6669Z" fill="white"/>
<path d="M374.248 29.8674H370.631C369.619 29.8674 368.799 30.6855 368.799 31.6947C368.799 32.7038 369.619 33.5219 370.631 33.5219H374.248C375.26 33.5219 376.081 32.7038 376.081 31.6947C376.081 30.6855 375.26 29.8674 374.248 29.8674Z" fill="white"/>
<path d="M374.26 8.03646H370.619C369.614 8.03646 368.799 8.8492 368.799 9.85177C368.799 10.8543 369.614 11.6671 370.619 11.6671H374.26C375.266 11.6671 376.081 10.8543 376.081 9.85177C376.081 8.8492 375.266 8.03646 374.26 8.03646Z" fill="white"/>
<path d="M366.986 33.5206H363.321C362.315 33.5206 361.5 34.3333 361.5 35.3359C361.5 36.3385 362.315 37.1512 363.321 37.1512H366.986C367.991 37.1512 368.806 36.3385 368.806 35.3359C368.806 34.3333 367.991 33.5206 366.986 33.5206Z" fill="white"/>
<path d="M366.986 4.40318H363.321C362.315 4.40318 361.5 5.21592 361.5 6.21849C361.5 7.22105 362.315 8.03379 363.321 8.03379H366.986C367.991 8.03379 368.806 7.22105 368.806 6.21849C368.806 5.21592 367.991 4.40318 366.986 4.40318Z" fill="white"/>
<path d="M359.676 37.151H356.011C355.005 37.151 354.19 37.9638 354.19 38.9664C354.19 39.9689 355.005 40.7817 356.011 40.7817H359.676C360.681 40.7817 361.496 39.9689 361.496 38.9664C361.496 37.9638 360.681 37.151 359.676 37.151Z" fill="white"/>
<path d="M359.664 0.75H356.023C355.011 0.75 354.19 1.56809 354.19 2.57725C354.19 3.58641 355.011 4.40449 356.023 4.40449H359.664C360.676 4.40449 361.496 3.58641 361.496 2.57725C361.496 1.56809 360.676 0.75 359.664 0.75Z" fill="white"/>
<path d="M352.366 33.5206H348.701C347.695 33.5206 346.88 34.3333 346.88 35.3359C346.88 36.3385 347.695 37.1512 348.701 37.1512H352.366C353.371 37.1512 354.186 36.3385 354.186 35.3359C354.186 34.3333 353.371 33.5206 352.366 33.5206Z" fill="white"/>
<path d="M352.366 4.40318H348.701C347.695 4.40318 346.88 5.21592 346.88 6.21849C346.88 7.22105 347.695 8.03379 348.701 8.03379H352.366C353.371 8.03379 354.186 7.22105 354.186 6.21849C354.186 5.21592 353.371 4.40318 352.366 4.40318Z" fill="white"/>
<path d="M345.054 29.8674H341.437C340.425 29.8674 339.604 30.6855 339.604 31.6947C339.604 32.7038 340.425 33.5219 341.437 33.5219H345.054C346.066 33.5219 346.886 32.7038 346.886 31.6947C346.886 30.6855 346.066 29.8674 345.054 29.8674Z" fill="white"/>
<path d="M345.066 8.03646H341.425C340.419 8.03646 339.604 8.8492 339.604 9.85177C339.604 10.8543 340.419 11.6671 341.425 11.6671H345.066C346.071 11.6671 346.886 10.8543 346.886 9.85177C346.886 8.8492 346.071 8.03646 345.066 8.03646Z" fill="white"/>
<path d="M337.78 26.237H334.115C333.109 26.237 332.294 27.0497 332.294 28.0523C332.294 29.0549 333.109 29.8676 334.115 29.8676H337.78C338.785 29.8676 339.6 29.0549 339.6 28.0523C339.6 27.0497 338.785 26.237 337.78 26.237Z" fill="white"/>
<path d="M337.768 11.6669H334.127C333.115 11.6669 332.294 12.485 332.294 13.4941C332.294 14.5033 333.115 15.3214 334.127 15.3214H337.768C338.78 15.3214 339.6 14.5033 339.6 13.4941C339.6 12.485 338.78 11.6669 337.768 11.6669Z" fill="white"/>
<path d="M330.457 22.581H326.817C325.804 22.581 324.984 23.399 324.984 24.4082C324.984 25.4174 325.804 26.2355 326.817 26.2355H330.457C331.47 26.2355 332.29 25.4174 332.29 24.4082C332.29 23.399 331.47 22.581 330.457 22.581Z" fill="white"/>
<path d="M330.469 15.3201H326.805C325.799 15.3201 324.984 16.1328 324.984 17.1354C324.984 18.138 325.799 18.9507 326.805 18.9507H330.469C331.475 18.9507 332.29 18.138 332.29 17.1354C332.29 16.1328 331.475 15.3201 330.469 15.3201Z" fill="white"/>
<path d="M321.346 20.7658C321.346 21.7684 322.161 22.5811 323.167 22.5811C324.172 22.5811 324.987 21.7684 324.987 20.7658C324.987 19.7633 324.172 18.9505 323.167 18.9505C322.161 18.9505 321.346 19.7633 321.346 20.7658Z" fill="white"/>
</svg>
